<svg version="1.2" xmlns="http://www.w3.org/2000/svg" viewBox="0 0 200 200" width="80" height="80"><path fill-rule="evenodd" fill="rgb(239,234,222)" d="m100.8 26.1c62.3-0.1 78.9 0.2 81.5 1.2 1.7 0.7 4 2.4 5 3.8 1.6 2.2 1.7 7 1.7 68.7 0 41.8-0.4 67.1-1 68.7-0.6 1.4-2.5 3.4-4.2 4.5-3.1 1.9-5.1 2-39.3 2-19.8 0-56-0.3-125-1.3l-5.5-5.7v-67.3c-0.1-66.5 0-67.2 2-70 1.2-1.6 3.1-3.3 4.3-3.7 1.2-0.5 37.4-0.9 80.5-0.9zm-72.3 112.6c0.6 0.2 10.4-10.1 22-22.8 11.6-12.7 21-23.5 21-24 0-0.4-9.7-11.2-21.5-23.9-11.8-12.7-21.8-23-22.3-23-0.4 0-0.6 21-0.5 46.7 0.2 30 0.7 46.8 1.3 47zm102.5-47c-0.1 0.5 9.4 11.1 21.1 23.8 11.6 12.7 21.8 23.1 22.5 23.3 1.2 0.2 1.4-7.5 1.4-46.8 0-37-0.3-47-1.2-46.9-0.7 0-10.9 10.4-22.6 23-11.6 12.6-21.2 23.2-21.2 23.6zm-53.5-15.3c12.7 13.6 23.5 24.6 24.1 24.4 0.6-0.2 11.3-11.2 23.7-24.6 12.5-13.3 22.7-24.7 22.7-25.2 0-0.7-16.4-1-47.1-1-26.2 0-47 0.4-46.8 0.9 0.2 0.4 10.7 11.9 23.4 25.5zm-20.7 53.3c-14 15.3-25.3 28.1-24.9 28.5 0.3 0.4 32.3 1.1 71.1 1.4 69.3 0.7 70.5 0.7 69-1.2-0.8-1-12.5-13.8-25.9-28.4-13.4-14.6-24.7-26.9-25.1-27.4-0.3-0.4-4.2 2.8-8.5 7.3-7 7.1-8.4 8.1-11.5 8.1-3.1-0.1-4.4-1.1-11-8.1l-7.6-8.1z"/></svg>
