<svg version="1.2" xmlns="http://www.w3.org/2000/svg" viewBox="0 0 80 80" width="80" height="80"><path fill-rule="evenodd" fill="var(--light-color)" d="m40.5 10c27.6 0 32.7 0.2 34 1.5 1.3 1.3 1.5 5.9 1.5 28.8 0 20-0.3 27.5-1.2 28.4-0.9 1-9.2 1.3-34.5 1.3-32.3 0-33.3-0.1-34.3-2-0.6-1.2-1-12.8-1.1-27.8-0.1-22.4 0.1-26 1.6-28 1.6-2.2 1.7-2.2 34-2.2zm-29.4 45.5c13-14 16.9-18.2 16.9-18.5 0-0.3-3.8-4.5-8.4-9.5l-8.5-9zm41.9-18.5c0.1 0.3 3.9 4.5 8.6 9.5l8.4 9c0-28.3-0.2-36.5-0.4-36.5-0.2 0-4.1 3.9-8.6 8.7-4.5 4.8-8.1 9-8 9.3zm-29.9-15.5l17.4 18.8c13.6-15 17.4-19.6 17.3-19.9-0.1-0.3-4.4-0.4-9.7-0.2-5.3 0.2-13 0.5-17.3 0.8zm-10.1 41.5c13.6 0.2 25.9 0.3 36.3 0.4 10.3 0 18.7-0.1 18.7-0.4-0.1-0.3-4.5-5.2-10-11l-9.9-10.5c-5.1 5-7 6.5-7.6 6.5-0.5 0-2.3-1.3-4-3-1.6-1.7-3.3-3-3.6-3-0.3 0-4.9 4.7-10.2 10.5z"/></svg>
