<svg version="1.2" xmlns="http://www.w3.org/2000/svg" viewBox="0 0 179 179" width="80" height="80"><path fill-rule="evenodd" fill="var(--light-color)" d="m3.6 4l51.9 0.5 21.2 30.8c11.7 16.9 21.6 30.8 21.9 30.9 0.3 0.2 12.6-13.6 53.9-61.7l7.8-0.2c4.2-0.2 7.7-0.1 7.7 0.2 0 0.3-13.6 16.4-30.3 35.8-16.7 19.3-30.6 35.8-31 36.5-0.4 0.7 11 18.3 29 44.5 16.3 23.7 31.6 46 38.3 55.7h-51.5l-22.5-33c-12.4-18.1-22.7-32.9-23-32.9-0.3 0-13.1 14.8-56.5 65.8h-7.7c-4.3 0.1-7.8-0.1-7.8-0.4 0-0.3 13.8-16.6 30.7-36.2 16.8-19.7 31.4-36.7 32.4-37.8 1.8-2 1.2-3-29.8-48-17.4-25.3-32.3-47-33.1-48.3zm74.8 87.9l52 74.2h21.5c-2.7-4.5-26.2-38.2-54-77.9l-50.5-72.2c-16.8 0.1-21.5 0.4-21.3 0.9 0.2 0.4 23.7 34.2 52.3 75z"/></svg>
