<svg version="1.2" xmlns="http://www.w3.org/2000/svg" viewBox="0 0 84 84" width="80" height="80"><path fill-rule="evenodd" fill="rgb(239,234,222)" d="m3.6 3.8l23.2 0.2 9.5 13.8c5.2 7.5 9.6 13.7 9.8 13.8 0.1 0.1 5.6-6.1 24.1-27.6l3.4-0.1c1.9-0.1 3.5 0 3.5 0.1 0 0.1-6.1 7.3-13.6 16-7.4 8.6-13.6 16-13.8 16.3-0.2 0.3 4.9 8.2 12.9 19.9 7.3 10.6 14.2 20.6 17.2 24.9h-23.1l-10-14.7c-5.5-8.1-10.2-14.7-10.3-14.7-0.1 0-5.8 6.6-25.2 29.4h-3.5c-1.9 0-3.5-0.1-3.5-0.2 0-0.2 6.2-7.4 13.8-16.2 7.5-8.8 14-16.4 14.4-16.9 0.8-0.9 0.6-1.3-13.3-21.4-7.8-11.3-14.4-21-14.8-21.6zm33.5 39.3l23.2 33.1h9.6c-1.2-2-11.7-17.1-24.1-34.8l-22.6-32.3c-7.5 0.1-9.6 0.2-9.5 0.4 0.1 0.2 10.6 15.3 23.4 33.6z"/></svg>
